/* XPM */
// 1st number is first line length
// 2nd number is number of lines
// 3rd number is the number of colors
// 4th number is the number of caractere to define a color
static char * doorclosed_xpm[] = {
"25 25 6 1",
". 	c None",
"a	c #D2691E",
"b	c #800000",
"c	c #6A5ACD",
"d	c #87CEEB",
"e	c #FFD700",
".........................",
".aaaaaaaaaaaaaaaaa.......",
".abbbbbbbbbbbbbbba.......",
".abaaaaaaaaaaaaaba.......",
".abaaaaaaaaaaaaaba.......",
".abaacccccccccaaba.......",
".abaacdddddddcaaba.......",
".abaacdddddddcaaba.......",
".abaacdddddddcaaba.......",
".abaacdddddddcaaba.......",
".abaacccccccccaaba.......",
".abaaaaaaaaaaaaaba.......",
".abeeeaaaaaaaaaaba.......",
".abaaaaaaaaaaaaaba.......",
".abaaaaaaaaaaaaaba.......",
".abaaaaaaaaaaaaaba.......",
".abaaaaaaaaaaaaaba.......",
".abaaaaaaaaaaaaaba.......",
".abaaaaaaaaaaaaaba.......",
".abaaaaaaaaaaaaaba.......",
".abaaaaaaaaaaaaaba.......",
".abaaaaaaaaaaaaaba.......",
".abaaaaaaaaaaaaaba.......",
".abaaaaaaaaaaaaaba.......",
"........................."};
