/* XPM */
// 1st number is first line length
// 2nd number is number of lines
// 3rd number is the number of colors
// 4th number is the number of caractere to define a color
static char * ghost_down_xpm[] = {
"25 25 4 1",
". 	c None",
"b	c #00FF00",
"/	c #0000FF",
"+	c #FFFF00",
".........+++++++.........",
".......+++++++++++.......",
".....+++++++++++++++.....",
"....+++++++++++++++++....",
"...+++++++++++++++++++...",
"..+++++++++++++++++++++..",
"..+++++++++++++++++++++..",
".++++bbbb+++++++bbbb++++.",
".+++bbbbbb+++++bbbbbb+++.",
"++++bbbbbb+++++bbbbbb++++",
"++++bbbbbb+++++bbbbbb++++",
"++++bb//bb+++++bb//bb++++",
"+++++b//b+++++++b//b+++++",
"+++++++++++++++++++++++++",
"+++++++++++++++++++++++++",
".+++++++++++++++++++++++.",
"+++++++++++++++++++++++++",
"+++++++++++++++++++++++++",
"+++++++++++++++++++++++++",
"+++++++++++++++++++++++++",
"+++++++++++++++++++++++++",
"++++.++++++...++++++.++++",
"+++...+++++...+++++...+++",
"++.....++++...++++.....++",
"+.......+++...+++.......+"};
