/* XPM */
// 1st number is first line length
// 2nd number is number of lines
// 3rd number is the number of colors
// 4th number is the number of caractere to define a color
static char * pacman_up2_xpm[] = {
"25 25 3 1",
"o	c None",
". 	c #000000",
"+	c #FFFF00",
".........ooooooo.........",
".........ooooooo.........",
".........ooooooo.........",
".........ooooooo.........",
"...+.....ooooooo.....+...",
"..+++....ooooooo....+++..",
"..++++...ooooooo...++++..",
".++++++..ooooooo..++++++.",
".+++++++.ooooooo.+++++++.",
"+++++++++ooooooo+++++++++",
"++++++++++ooooo++++++++++",
"+++++++++++ooo+++++++++++",
"++++++++++++o++++++++++++",
"+++++++++++++++++++++++++",
"+++++++++++++++++++++++++",
"+++++++++++++++++++++++++",
".+++++++++++++++++++++++.",
".+++++++++++++++++++++++.",
"..+++++++++++++++++++++..",
"..+++++++++++++++++++++..",
"...+++++++++++++++++++...",
"....+++++++++++++++++....",
".....+++++++++++++++.....",
".......+++++++++++.......",
".........+++++++........."};
