/* XPM */
// 1st number is first line length
// 2nd number is number of lines
// 3rd number is the number of colors
// 4th number is the number of caractere to define a color
static char *wall11_xpm[] = {
"25 25 2 1",
". 	c None",
"+	c #0000FF",
"...........+++...........",
"...........+++...........",
"...........+++...........",
"...........+++...........",
"...........+++...........",
"...........+++...........",
"...........+++...........",
"...........+++...........",
"...........+++...........",
"...........+++...........",
"...........+++...........",
"+++++++++++++++++++++++++",
"+++++++++++++++++++++++++",
"+++++++++++++++++++++++++",
"...........+++...........",
"...........+++...........",
"...........+++...........",
"...........+++...........",
"...........+++...........",
"...........+++...........",
"...........+++...........",
"...........+++...........",
"...........+++...........",
"...........+++...........",
"...........+++..........."};
